# xmcd CD database file
#
# Track frame offsets:
#	150
#	14107
#	30278
#	48610
#	59048
#	70661
#	89460
#	104325
#	122176
#	133612
#	146866
#	158496
#	169580
#	179874
#	192070
#	203746
#	218613
#	232950
#	246382
#	256804
#
# Disc length: 3570 seconds
#
# Revision: 0
# Processed by: cddbd v1.5.2PL0 Copyright (c) Steve Scherf et al.
# Submitted via: ACXtractor (MTCDDB.DLL V2003.12.21)
#
DISCID=250df014
DTITLE=Neville Anderson - Rambling Shoes
DYEAR=2000
DGENRE=Country
TTITLE0=My Rambling Shoes
TTITLE1=Like I Still Care
TTITLE2=The Band (Played Waltz in Matilda)
TTITLE3=Barrossa Valley Wine
TTITLE4=The Tracks you Left on Me
TTITLE5=The Jimberella Kid
TTITLE6=Life's Like Rodeo
TTITLE7=Cammooweal
TTITLE8=Stranger
TTITLE9=Tennessee flat Top Box
TTITLE10=Leave Him in the Longyard
TTITLE11=Here Comes that Rainbow Again
TTITLE12=The Owl and the Pussycat
TTITLE13=Movin' On
TTITLE14=She's Gone Gone Gone
TTITLE15=Diane
TTITLE16=The Long black Veil
TTITLE17=Further down the Line
TTITLE18=Changes
TTITLE19=There Stands the Glass
EXTD=ID3G:   2 YEAR: 2000
EXTT0=
EXTT1=
EXTT2=
EXTT3=
EXTT4=
EXTT5=
EXTT6=
EXTT7=
EXTT8=
EXTT9=
EXTT10=
EXTT11=
EXTT12=
EXTT13=
EXTT14=
EXTT15=
EXTT16=
EXTT17=
EXTT18=
EXTT19=
PLAYORDER=
